# xmcd
#
# Track frame offsets: 
#        150
#        14935
#        31837
#        48202
#        68652
#        85557
#        106172
#        124253
#        142565
#        160387
#        177490
#        198380
#        223245
#
# Disc length: 3262 seconds
#
# Revision: 0
# Processed by: cddbd v1.5.2PL0 Copyright (c) Steve Scherf et al.
# Submitted via: ExactAudioCopy v0.99pb5
#
DISCID=af0cbc0d
DTITLE=Hanson - Shout It Out
DYEAR=2010
DGENRE=Blues
TTITLE0=Waiting for This
TTITLE1=Thinkin' 'Bout Somethin'
TTITLE2=Kiss Me When You Come Home
TTITLE3=Carry You There
TTITLE4=Give A Little
TTITLE5=Make It Out Alive
TTITLE6=And I Waited
TTITLE7=Use Me Up
TTITLE8=These Walls
TTITLE9=Musical Ride
TTITLE10=Voice in the Chorus
TTITLE11=Me Myself and I
TTITLE12=Make It Through Today
EXTD=
EXTT0=
EXTT1=
EXTT2=
EXTT3=
EXTT4=
EXTT5=
EXTT6=
EXTT7=
EXTT8=
EXTT9=
EXTT10=
EXTT11=
EXTT12=
PLAYORDER=
